<?xml version="1.0" standalone="no"?>
<!DOCTYPE svg PUBLIC "-//W3C//DTD SVG 20010904//EN"
 "http://www.w3.org/TR/2001/REC-SVG-20010904/DTD/svg10.dtd">
<svg version="1.0" xmlns="http://www.w3.org/2000/svg"
 width="1336.000000pt" height="1336.000000pt" viewBox="0 0 1336.000000 1336.000000"
 preserveAspectRatio="xMidYMid meet">
<metadata>
Created by potrace 1.14, written by Peter Selinger 2001-2017
</metadata>
<g transform="translate(0.000000,1336.000000) scale(0.100000,-0.100000)"
fill="#000000" stroke="none">
<path d="M7335 11999 c-55 -9 -289 -50 -520 -89 -231 -39 -537 -91 -680 -115
-603 -103 -1093 -185 -1099 -185 -3 0 -6 -67 -6 -149 l0 -149 38 9 c20 5 102
18 182 30 186 27 419 23 545 -10 263 -69 372 -224 330 -466 -33 -187 -254
-1001 -488 -1795 -9 -30 -21 -49 -37 -56 -14 -7 -450 -175 -970 -374 -520
-200 -1195 -459 -1500 -576 -305 -117 -556 -211 -558 -209 -2 2 51 429 117
949 l120 947 -55 111 c-30 61 -56 113 -58 115 -1 2 -322 -153 -712 -343 -390
-191 -956 -467 -1259 -615 -302 -148 -549 -273 -547 -280 4 -18 393 -813 401
-822 7 -7 280 121 300 139 2 2 -31 124 -73 270 -44 151 -75 275 -72 287 3 12
18 42 34 67 29 45 33 48 738 392 390 190 710 345 712 344 6 -6 -217 -1779
-225 -1786 -4 -4 -196 -78 -425 -166 -230 -87 -418 -163 -418 -168 0 -20 114
-306 123 -306 5 0 157 57 338 126 181 70 332 124 335 122 3 -3 -49 -443 -115
-978 l-120 -972 55 -109 c30 -60 56 -109 59 -109 7 0 2650 1291 2657 1298 4 4
-98 223 -227 487 -129 264 -236 485 -238 490 -5 13 -297 -131 -297 -146 0 -7
48 -164 106 -350 104 -336 105 -339 92 -385 l-13 -46 -805 -393 c-494 -241
-806 -388 -808 -381 -2 7 45 388 103 847 58 459 110 865 115 902 4 38 10 70
12 72 2 2 381 148 843 324 462 177 1129 432 1483 568 353 135 644 244 647 242
2 -2 -464 -1642 -1036 -3644 -572 -2002 -1042 -3652 -1046 -3667 l-5 -28 560
0 560 0 26 77 c14 43 131 407 260 808 285 888 352 1067 558 1495 295 612 794
1426 1237 2015 574 765 1094 1276 1496 1470 153 74 269 96 392 76 246 -42 319
-238 235 -636 -82 -391 -258 -1035 -667 -2450 -324 -1122 -546 -1993 -585
-2303 -28 -223 32 -405 185 -557 129 -129 252 -178 455 -179 169 0 304 36 505
137 382 191 866 630 1250 1137 102 134 315 452 309 461 -2 4 -44 29 -92 55
-48 25 -101 55 -118 65 l-31 19 -117 -156 c-215 -285 -464 -565 -626 -701 -65
-55 -158 -114 -222 -139 -52 -22 -75 -25 -134 -22 -63 3 -77 7 -111 34 -45 36
-72 98 -72 167 -1 62 51 251 386 1392 85 292 161 550 168 575 7 25 24 83 38
130 679 2289 710 2413 711 2905 1 197 -1 229 -22 310 -46 183 -166 373 -307
488 -74 60 -216 129 -315 153 -103 26 -318 26 -455 0 -282 -52 -613 -208 -923
-433 -204 -149 -321 -251 -538 -467 -368 -369 -750 -839 -1252 -1543 -131
-183 -548 -790 -572 -833 -8 -13 -11 -13 -25 1 -12 12 -13 22 -6 45 5 16 65
218 132 449 67 231 181 625 254 875 73 250 203 698 290 995 86 297 206 707
265 910 59 204 150 514 201 690 51 176 93 321 94 323 3 4 264 104 1625 629
635 244 1157 449 1161 454 3 5 43 -68 89 -163 362 -747 694 -1415 735 -1478
27 -41 94 -120 149 -176 84 -84 115 -108 186 -142 125 -62 191 -75 335 -70
101 4 135 10 212 36 211 72 337 157 513 349 81 88 226 292 290 411 19 34 37
62 40 62 3 0 37 -63 75 -140 38 -77 74 -140 80 -140 9 0 784 376 793 385 6 5
-92 195 -101 195 -5 0 -66 -21 -135 -46 l-127 -45 -60 16 c-33 10 -65 21 -71
26 -6 5 -266 533 -578 1173 l-568 1164 -105 -49 c-113 -53 -104 -45 -598 -520
l-39 -39 39 -81 c22 -44 43 -83 47 -85 4 -3 91 36 194 86 103 49 189 89 190
87 6 -6 884 -1809 884 -1816 0 -15 -162 -191 -234 -254 -145 -127 -337 -237
-471 -272 -79 -21 -197 -21 -264 -1 -104 31 -201 112 -290 245 -24 34 -233
453 -466 930 -232 476 -436 894 -453 928 l-32 62 -101 -47 c-95 -44 -110 -56
-248 -187 -141 -134 -150 -141 -231 -172 -96 -36 -392 -149 -1534 -587 -439
-169 -802 -305 -806 -304 -4 2 26 113 66 248 429 1455 646 2190 654 2213 l9
27 -102 -1 c-56 -1 -147 -10 -202 -20z"/>
</g>
</svg>
