<?xml version="1.0" encoding="UTF-8"?>
<svg id="Layer_2" data-name="Layer 2" xmlns="http://www.w3.org/2000/svg" xmlns:xlink="http://www.w3.org/1999/xlink" viewBox="0 0 293.92 227.04">
  <defs>
    <style>
      .cls-1 {
        font-family: MyriadPro-Regular, 'Myriad Pro';
        font-size: 14px;
      }

      .cls-2, .cls-3, .cls-4, .cls-5, .cls-6 {
        fill: none;
      }

      .cls-7 {
        letter-spacing: -.01em;
      }

      .cls-8 {
        letter-spacing: .02em;
      }

      .cls-9 {
        fill: #9ecdff;
      }

      .cls-9, .cls-3, .cls-4, .cls-5, .cls-10 {
        stroke-linecap: square;
        stroke-linejoin: round;
      }

      .cls-9, .cls-3, .cls-4, .cls-5, .cls-10, .cls-6 {
        stroke: #000;
      }

      .cls-9, .cls-5 {
        stroke-width: 2px;
      }

      .cls-11 {
        letter-spacing: 0em;
      }

      .cls-12 {
        clip-path: url(#clippath);
      }

      .cls-13 {
        fill: #f0f;
      }

      .cls-14 {
        letter-spacing: 0em;
      }

      .cls-15 {
        clip-path: url(#clippath-1);
      }

      .cls-16 {
        clip-path: url(#clippath-3);
      }

      .cls-17 {
        clip-path: url(#clippath-2);
      }

      .cls-18 {
        letter-spacing: 0em;
      }

      .cls-19 {
        letter-spacing: 0em;
      }

      .cls-4 {
        stroke-width: 2px;
      }

      .cls-10 {
        fill: rgba(252, 234, 79, .22);
        stroke-width: 2.12px;
      }

      .cls-20 {
        letter-spacing: 0em;
      }

      .cls-6 {
        opacity: 0;
        stroke-miterlimit: 10;
        stroke-width: 0px;
      }
    </style>
    <clipPath id="clippath">
      <rect class="cls-2" x="151.81" y="118.99" width="9.45" height="16.92"/>
    </clipPath>
    <clipPath id="clippath-1">
      <rect class="cls-2" x="118.24" y="97.96" width="6.46" height="10.91"/>
    </clipPath>
    <clipPath id="clippath-2">
      <rect class="cls-2" x="17.02" y="83.89" width="54.07" height="15.27" transform="translate(-50.58 54.63) rotate(-43)"/>
    </clipPath>
    <clipPath id="clippath-3">
      <rect class="cls-2" x="113.86" y="197.15" width="59.27" height="15.34"/>
    </clipPath>
  </defs>
  <polygon id="rect6464" class="cls-10" points="193.04 75.98 292.87 26 292.87 176 193.04 225.98 193.04 75.98"/>
  <path id="rect6472" class="cls-9" d="m100.84,1L1,50.97v150l99.84-49.97V1Zm-39.38,57.16c11.76-.28,20.16,10.22,20.16,27.47,0,22.08-13.77,46.89-30.72,55.38-16.95,8.49-30.72-2.54-30.72-24.62,0-22.08,13.77-46.89,30.72-55.38,3.71-1.86,7.27-2.77,10.56-2.84Z"/>
  <path id="path6466" class="cls-3" d="m228.05,134.18c.05-5.54,2.59-11.73,6.92-16.82"/>
  <path id="path6468" class="cls-4" d="m242.94,51.67v149.17"/>
  <path id="path6470" class="cls-5" d="m292.18,101.61l-98.8,49.62"/>
  <path id="path6546" class="cls-3" d="m108.56,97.95c2.79,4.21,2.44,10.04,2.44,10.04"/>
  <g>
    <line class="cls-3" x1="50.97" y1="101" x2="269.61" y2="129.46"/>
    <path d="m273.2,129.92c-1.77.41-4.01,1.2-5.45,2.17l1.39-2.7-.66-2.96c1.15,1.3,3.11,2.64,4.72,3.49Z"/>
  </g>
  <g>
    <line class="cls-3" x1="50.97" y1="101" x2="208.83" y2="91.26"/>
    <polygon points="213.05 91 207.25 93.8 208.51 91.28 206.95 88.93 213.05 91"/>
  </g>
  <path id="path6580" class="cls-13" d="m53.39,101c0,1.34-1.08,2.42-2.42,2.42s-2.42-1.08-2.42-2.42,1.08-2.42,2.42-2.42,2.42,1.08,2.42,2.42Z"/>
  <g>
    <line class="cls-3" x1="243.05" y1="126" x2="215.81" y2="94.22"/>
    <polygon points="213.05 91 218.79 93.94 216.02 94.46 215.09 97.12 213.05 91"/>
  </g>
  <path id="path6482" class="cls-13" d="m215.47,91c0,1.34-1.08,2.42-2.42,2.42s-2.42-1.08-2.42-2.42,1.08-2.42,2.42-2.42,2.42,1.08,2.42,2.42Z"/>
  <text class="cls-1" transform="translate(8.08 188.49) rotate(-25)"><tspan class="cls-11" x="0" y="0">A</tspan><tspan x="8.53" y="0">pe</tspan><tspan class="cls-8" x="23.51" y="0">r</tspan><tspan x="28.42" y="0">tu</tspan><tspan class="cls-7" x="40.77" y="0">r</tspan><tspan x="45.21" y="0">e</tspan></text>
  <text class="cls-1" transform="translate(201.27 197.15) rotate(-25)"><tspan class="cls-18" x="0" y="0">I</tspan><tspan class="cls-19" x="3.49" y="0">mage </tspan><tspan class="cls-20" x="0" y="16.8">P</tspan><tspan class="cls-19" x="7.38" y="16.8">lane</tspan></text>
  <polygon class="cls-6" points="156.25 127.65 156.25 127.65 156.25 127.65 156.25 127.65 156.25 127.65 156.25 127.65 156.25 127.65 156.25 127.65 156.25 127.65 156.25 127.65 156.25 127.65 156.25 127.65 156.25 127.65 156.25 127.65 156.25 127.65 156.25 127.65 156.25 127.65 156.25 127.65 156.25 127.65 156.25 127.65 156.25 127.65 156.25 127.65 156.25 127.65 156.25 127.65 156.25 127.65 156.25 127.65 156.25 127.65 156.25 127.65 156.25 127.65 156.25 127.65 156.25 127.65 156.25 127.65 156.25 127.65 156.25 127.65 156.25 127.65 156.25 127.65 156.25 127.65 156.25 127.65 156.25 127.65 156.25 127.65 156.25 127.65 156.25 127.65 156.25 127.65 156.25 127.65 156.25 127.65 156.25 127.65 156.25 127.65 156.25 127.65 156.25 127.65 156.25 127.65 156.25 127.65 156.25 127.65 156.25 127.65 156.25 127.65 156.25 127.65 156.25 127.65 156.25 127.65 156.25 127.65 156.25 127.65 156.25 127.65 156.25 127.65 156.25 127.65 156.25 127.65 156.25 127.65 156.25 127.65 156.25 127.65 156.25 127.65 156.25 127.65 156.25 127.65 156.25 127.65 156.25 127.65 156.25 127.65 156.25 127.65 156.25 127.65 156.25 127.65 156.25 127.65 156.25 127.65 156.25 127.65 156.25 127.65 156.25 127.65 156.25 127.65 156.25 127.65 156.25 127.65 156.25 127.65 156.25 127.65 156.25 127.65"/>
  <g class="cls-12">
    <path d="m157.71,124.89h1.53c.36,0,.53,0,.53-.36,0-.2-.18-.2-.48-.2h-1.48l.37-2.03c.07-.37.32-1.64.43-1.85.16-.34.46-.61.84-.61.07,0,.54,0,.87.32-.79.07-.96.7-.96.96,0,.41.32.62.66.62.46,0,.98-.39.98-1.07,0-.82-.82-1.23-1.55-1.23-.61,0-1.73.32-2.26,2.09-.11.37-.16.55-.59,2.8h-1.23c-.34,0-.53,0-.53.34,0,.21.16.21.5.21h1.18l-1.34,7.04c-.32,1.73-.62,3.35-1.55,3.35-.07,0-.52,0-.86-.32.82-.05.98-.69.98-.96,0-.41-.32-.62-.66-.62-.46,0-.98.39-.98,1.07,0,.8.78,1.23,1.52,1.23.98,0,1.69-1.05,2.02-1.73.57-1.12.98-3.28,1-3.41l1.07-5.65"/>
  </g>
  <polygon class="cls-6" points="34.49 118.69 34.49 118.69 34.49 118.69 34.49 118.69 34.49 118.69 34.49 118.69 34.49 118.69 34.49 118.69 34.49 118.69 34.49 118.69 34.49 118.69 34.49 118.69 34.49 118.69 34.49 118.69 34.49 118.69 34.49 118.69 34.49 118.69 34.49 118.69 34.49 118.69 34.49 118.69 34.49 118.69 34.49 118.69 34.49 118.69 34.49 118.69 34.49 118.69 34.49 118.69 34.49 118.69 34.49 118.69 34.49 118.69 34.49 118.69 34.49 118.69 34.49 118.69 34.49 118.69 34.49 118.69 34.49 118.69 34.49 118.69 34.49 118.69 34.49 118.69 34.49 118.69 34.49 118.69 34.49 118.69 34.49 118.69 34.49 118.69 34.49 118.69 34.49 118.69 34.49 118.69 34.49 118.69 34.49 118.69 34.49 118.69 34.49 118.69 34.49 118.69 34.49 118.69 34.49 118.69 34.49 118.69 34.49 118.69 34.49 118.69 34.49 118.69 34.49 118.69 34.49 118.69 34.49 118.69 34.49 118.69 34.49 118.69 34.49 118.69 34.49 118.69 34.49 118.69 34.49 118.69 34.49 118.69 34.49 118.69 34.49 118.69 34.49 118.69 34.49 118.69 34.49 118.69 34.49 118.69 34.49 118.69 34.49 118.69 34.49 118.69 34.49 118.69 34.49 118.69 34.49 118.69 34.49 118.69 34.49 118.69 34.49 118.69 34.49 118.69 34.49 118.69 34.49 118.69 34.49 118.69"/>
  <polygon class="cls-6" points="115.86 103.73 115.86 103.73 115.86 103.73 115.86 103.73 115.86 103.73 115.86 103.73 115.86 103.73 115.86 103.73 115.86 103.73 115.86 103.73 115.86 103.73 115.86 103.73 115.86 103.73 115.86 103.73 115.86 103.73 115.86 103.73 115.86 103.73 115.86 103.73 115.86 103.73 115.86 103.73 115.86 103.73 115.86 103.73 115.86 103.73 115.86 103.73 115.86 103.73 115.86 103.73 115.86 103.73 115.86 103.73 115.86 103.73 115.86 103.73 115.86 103.73 115.86 103.73 115.86 103.73 115.86 103.73 115.86 103.73 115.86 103.73 115.86 103.73 115.86 103.73 115.86 103.73 115.86 103.73 115.86 103.73 115.86 103.73 115.86 103.73 115.86 103.73 115.86 103.73 115.86 103.73 115.86 103.73 115.86 103.73 115.86 103.73 115.86 103.73 115.86 103.73 115.86 103.73 115.86 103.73 115.86 103.73 115.86 103.73 115.86 103.73 115.86 103.73 115.86 103.73 115.86 103.73 115.86 103.73 115.86 103.73 115.86 103.73 115.86 103.73 115.86 103.73 115.86 103.73 115.86 103.73 115.86 103.73 115.86 103.73 115.86 103.73 115.86 103.73 115.86 103.73 115.86 103.73 115.86 103.73 115.86 103.73 115.86 103.73 115.86 103.73 115.86 103.73 115.86 103.73 115.86 103.73 115.86 103.73 115.86 103.73 115.86 103.73 115.86 103.73 115.86 103.73 115.86 103.73 115.86 103.73 115.86 103.73"/>
  <g class="cls-15">
    <path d="m123.08,103.76c-.16.67-.46,1.9-1.01,2.94-.51.98-1.06,1.69-1.68,1.69-.48,0-.78-.42-.78-1.77,0-.61.09-1.45.46-2.87h3.01m-2.9-.46c.25-.93.54-2.09,1.12-3.11.39-.71.93-1.52,1.58-1.52.71,0,.8.93.8,1.75,0,.71-.12,1.45-.46,2.88h-3.03Zm4.45-1.98c0-.96-.26-2.97-1.74-2.97-2.01,0-4.24,4.08-4.24,7.4,0,1.36.42,2.97,1.74,2.97,2.04,0,4.24-4.16,4.24-7.4Z"/>
  </g>
  <g>
    <line class="cls-3" x1="23.86" y1="125.76" x2="48.36" y2="103.37"/>
    <path d="m21.63,127.8c1.4-.57,3.31-1.09,4.76-1.13l-2.24-1.17-.97-2.34c-.16,1.44-.86,3.29-1.55,4.64Z"/>
    <polygon points="50.97 100.98 48.67 105.84 48.17 103.54 45.93 102.84 50.97 100.98"/>
  </g>
  <polygon class="cls-6" points="58.09 83.78 58.09 83.78 58.09 83.78 58.09 83.78 58.09 83.78 58.09 83.78 58.09 83.78 58.09 83.78 58.09 83.78 58.09 83.78 58.09 83.78 58.09 83.78 58.09 83.78 58.09 83.78 58.09 83.78 58.09 83.78 58.09 83.78 58.09 83.78 58.09 83.78 58.09 83.78 58.09 83.78 58.09 83.78 58.09 83.78 58.09 83.78 58.09 83.78 58.09 83.78 58.09 83.78 58.09 83.78 58.09 83.78 58.09 83.78 58.09 83.78 58.09 83.78 58.09 83.78 58.09 83.78 58.09 83.78 58.09 83.78 58.09 83.78 58.09 83.78 58.09 83.78 58.09 83.78 58.09 83.78 58.09 83.78 58.09 83.78 58.09 83.78 58.09 83.78 58.09 83.78 58.09 83.78 58.09 83.78 58.09 83.78 58.09 83.78 58.09 83.78 58.09 83.78 58.09 83.78 58.09 83.78 58.09 83.78 58.09 83.78 58.09 83.78 58.09 83.78 58.09 83.78 58.09 83.78 58.09 83.78 58.09 83.78 58.09 83.78 58.09 83.78 58.09 83.78 58.09 83.78 58.09 83.78 58.09 83.78 58.09 83.78 58.09 83.78 58.09 83.78 58.09 83.78 58.09 83.78 58.09 83.78 58.09 83.78 58.09 83.78 58.09 83.78 58.09 83.78 58.09 83.78 58.09 83.78 58.09 83.78 58.09 83.78 58.09 83.78 58.09 83.78 58.09 83.78 58.09 83.78 58.09 83.78"/>
  <g class="cls-17">
    <path d="m28.76,108.51c.13.25.15.27.16.6.08,1.04-.2,1.63-.51,1.91-.54.5-1.25.05-1.64-.37-.5-.54-1.4-2.2-1.61-2.92-.26-.95-.15-1.81.29-2.21.7-.66,1.68.09,1.74.15s.1.15.14.21l1.44,2.62m-1.91-3.46c-.57-.22-1.15-.22-1.64.24-1.27,1.18-1.12,4.02.35,5.6.95,1.02,2.21,1.18,3.05.39.22-.2.72-.75.65-2.12.51.37,1.22.38,1.74-.11.38-.35.4-.83.25-1.34-.18-.56-.65-1.35-.67-1.37-.1-.11-.2-.02-.23.01-.11.1-.08.15.03.34.47.87.87,1.69.43,2.11-.29.27-.59.02-.79-.2-.22-.24-.28-.34-.61-.93-.31-.57-.38-.69-.67-1.2l-1.02-1.88c-.21-.37-.23-.4-.27-.44-.17-.18-.4-.17-.59,0-.26.24-.2.63-.01.9Z"/>
    <path d="m41.45,96.39c.15-.14.36-.33.16-.55s-.41-.02-.57.13l-6.46,6.02c-.16.15-.37.34-.17.56s.41.02.56-.12l6.48-6.04m-1.97-2.09c.16-.15.37-.34.17-.56s-.41-.02-.56.12l-6.48,6.04c-.15.14-.36.33-.16.55s.41.02.57-.13l6.46-6.02Z"/>
    <path d="m44.65,83.67c-.26-.47-.26-.52.2-.96l1.16-1.08c1.06-.99,2.49-1.25,3.83.18.49.53,1.93,2.51,2.12,4.55.06.69-.03,2.31-1.36,3.55l-1.22,1.14c-.15.14-.17.16-.25.21-.12.09-.16.11-.24.02-.03-.03-.05-.05-.18-.3l-4.06-7.32m3.07,7.98c.28.52.34.63-.51,1.43-.18.17-.3.28-.11.49.12.13.22.04.42-.15l3.58-3.34c2.25-2.1,2.25-6.37.04-8.74-1.42-1.53-3.47-1.88-5.1-.37l-3.64,3.39c-.21.19-.32.3-.13.51.12.13.22.04.44-.16.14-.13.35-.3.49-.41.19-.14.29-.17.4-.05.04.04.06.09.15.25l3.97,7.16Z"/>
    <path d="m53.62,73.32c-.08-.19-.12-.23-.13-.25-.11-.12-.3-.13-.42-.01-.08.07-.12.17-.09.27l5.86,13.81c.08.19.12.23.13.24.11.12.3.13.42.01.14-.13.1-.24,0-.48l-5.76-13.6"/>
    <path d="m62.06,78.31l.11-2.18c.3-3.07.4-4.26-.61-5.34-1.15-1.23-2.93-1.19-4.25.04-1.22,1.14-1.09,2.88-.2,3.85.56.61,1.11.1,1.14.07.18-.17.44-.65.03-1.1-.26-.28-.72-.38-1.1-.03-.09.08-.11.1-.13.14-.41-.94-.2-1.88.43-2.47.98-.92,2.27-.48,3.09.41s1.06,2.22,1.09,3.45l.08,4.25c0,.23.01.25.25.51l4.01-3.74-1.45-2.17-.27.25c.25.38.62.92.66,1.19,0,.16-.71.82-.95,1.04l-1.95,1.82"/>
  </g>
  <polygon class="cls-6" points="143.49 206.4 143.49 206.4 143.49 206.4 143.49 206.4 143.49 206.4 143.49 206.4 143.49 206.4 143.49 206.4 143.49 206.4 143.49 206.4 143.49 206.4 143.49 206.4 143.49 206.4 143.49 206.4 143.49 206.4 143.49 206.4 143.49 206.4 143.49 206.4 143.49 206.4 143.49 206.4 143.49 206.4 143.49 206.4 143.49 206.4 143.49 206.4 143.49 206.4 143.49 206.4 143.49 206.4 143.49 206.4 143.49 206.4 143.49 206.4 143.49 206.4 143.49 206.4 143.49 206.4 143.49 206.4 143.49 206.4 143.49 206.4 143.49 206.4 143.49 206.4 143.49 206.4 143.49 206.4 143.49 206.4 143.49 206.4 143.49 206.4 143.49 206.4 143.49 206.4 143.49 206.4 143.49 206.4 143.49 206.4 143.49 206.4 143.49 206.4 143.49 206.4 143.49 206.4 143.49 206.4 143.49 206.4 143.49 206.4 143.49 206.4 143.49 206.4 143.49 206.4 143.49 206.4 143.49 206.4 143.49 206.4 143.49 206.4 143.49 206.4 143.49 206.4 143.49 206.4 143.49 206.4 143.49 206.4 143.49 206.4 143.49 206.4 143.49 206.4 143.49 206.4 143.49 206.4 143.49 206.4 143.49 206.4 143.49 206.4 143.49 206.4 143.49 206.4 143.49 206.4 143.49 206.4 143.49 206.4 143.49 206.4 143.49 206.4 143.49 206.4 143.49 206.4 143.49 206.4 143.49 206.4 143.49 206.4 143.49 206.4 143.49 206.4"/>
  <g class="cls-16">
    <path d="m117.33,198.44s0-.16-.19-.16c-.34,0-1.43.12-1.81.15-.12.01-.28.03-.28.3,0,.18.13.18.36.18.71,0,.74.1.74.25l-.04.3-2.15,8.56c-.06.21-.06.24-.06.33,0,.34.3.42.43.42.19,0,.42-.13.51-.31.07-.13.74-2.88.83-3.25.51.04,1.72.28,1.72,1.26,0,.1,0,.16-.04.31-.03.18-.06.36-.06.52,0,.88.59,1.47,1.37,1.47.45,0,.85-.24,1.17-.79.37-.65.53-1.47.53-1.5,0-.15-.13-.15-.18-.15-.15,0-.16.06-.21.27-.3,1.08-.64,1.84-1.29,1.84-.28,0-.48-.16-.48-.7,0-.25.06-.59.12-.83.06-.25.06-.31.06-.46,0-.97-.94-1.4-2.2-1.56.46-.27.94-.74,1.28-1.1.71-.79,1.4-1.43,2.12-1.43.09,0,.1,0,.13.01.18.03.19.03.31.12.03.01.03.03.06.06-.71.04-.85.62-.85.8,0,.24.16.52.56.52s.82-.33.82-.91c0-.45-.34-.94-1.01-.94-.42,0-1.1.12-2.17,1.31-.51.56-1.08,1.16-1.65,1.38l1.55-6.27"/>
    <path d="m135.64,206.62c.21,0,.49,0,.49-.3s-.28-.3-.51-.3h-8.87c-.22,0-.51,0-.51.3s.28.3.49.3h8.9m-.01-2.88c.22,0,.51,0,.51-.3s-.28-.3-.49-.3h-8.9c-.21,0-.49,0-.49.3s.28.3.51.3h8.87Z"/>
    <path d="m143.02,207.45l1.58-1.53c2.32-2.05,3.21-2.85,3.21-4.34,0-1.69-1.34-2.88-3.15-2.88-1.68,0-2.78,1.37-2.78,2.69,0,.83.74.83.79.83.25,0,.77-.18.77-.79,0-.39-.27-.77-.79-.77-.12,0-.15,0-.19.01.34-.97,1.14-1.52,2.01-1.52,1.35,0,1.99,1.2,1.99,2.42s-.74,2.36-1.56,3.28l-2.85,3.18c-.16.16-.16.19-.16.55h5.51l.42-2.59h-.37c-.07.45-.18,1.1-.33,1.32-.1.12-1.08.12-1.41.12h-2.67"/>
    <path d="m152.49,203.05h1.68c-.49,2.2-.62,2.84-.62,3.83,0,.22,0,.62.12,1.13.15.65.31.74.53.74.3,0,.61-.27.61-.56,0-.09,0-.12-.09-.33-.43-1.07-.43-2.04-.43-2.45,0-.79.1-1.59.27-2.36h1.69c.19,0,.73,0,.73-.51,0-.36-.31-.36-.59-.36h-4.98c-.33,0-.89,0-1.55.7-.52.58-.91,1.26-.91,1.34,0,.01,0,.15.18.15.12,0,.15-.06.24-.18.73-1.14,1.59-1.14,1.89-1.14h.85c-.48,1.8-1.28,3.6-1.9,4.95-.12.22-.12.25-.12.36,0,.28.24.4.43.4.45,0,.56-.42.74-.97.21-.68.21-.71.4-1.46l.83-3.28"/>
    <path d="m164.07,198.01c.07-.19.07-.25.07-.27,0-.16-.13-.3-.3-.3-.1,0-.21.04-.25.13l-5.16,14.16c-.07.19-.07.25-.07.27,0,.16.13.3.3.3.19,0,.24-.1.33-.36l5.08-13.94"/>
    <path d="m170.27,204.25c.61,1.56,1.32,3.83,1.56,4.18.24.33.39.33.79.33h.33c.15-.01.16-.1.16-.15s-.03-.07-.07-.13c-.15-.16-.24-.39-.34-.68l-3.03-8.45c-.31-.86-1.11-1.05-1.81-1.05-.07,0-.27,0-.27.16,0,.12.12.15.13.15.49.09.59.18.97,1.19l1.44,4.04-4.1,4.07c-.18.18-.27.27-.27.46,0,.25.21.43.45.43s.37-.16.49-.31l3.58-4.22"/>
  </g>
  <text class="cls-1" transform="translate(74.89 208.86)"><tspan x="0" y="0">No</tspan><tspan class="cls-14" x="16.9" y="0">t</tspan><tspan x="21.45" y="0">e:</tspan></text>
</svg>